
<svg contentScriptType="text/ecmascript" width="766.7952880859375"
     xmlns:xlink="http://www.w3.org/1999/xlink" zoomAndPan="magnify"
     contentStyleType="text/css" height="984.5831298828125"
     preserveAspectRatio="xMidYMid meet" xmlns="http://www.w3.org/2000/svg"
     version="1.0">
    <g transform="matrix(1.0 0.0 0.0 1.0 -24.60236358642578 -53.708396911621094) ">
        <path style="fill:#234060;fill-opacity:1;stroke-width:0.536285"
              d="M 24.602384,590.86129 V 143.43092 l 1.86663,0.2929 c 5.12843,0.80472 18.53344,-4.13451 25.57655,-9.42399 11.13882,-8.36541 18.26514,-17.01705 27.91921,-33.8951 11.42764,-19.978725 23.730316,-33.224575 37.449886,-40.320935 3.89955,-2.01702 12.23659,-4.78645 14.40904,-4.78645 0.59943,0 1.39664,-0.29663 1.77158,-0.65919 0.54355,-0.52559 67.27054,-0.6866 329.24202,-0.79447 l 328.56032,-0.13528 v 15.95575 15.95575 H 581.01976 c -198.91201,0 -210.63526,0.0507 -215.10086,0.93098 -10.23477,2.01745 -20.91784,6.32704 -29.90822,12.06512 -6.21441,3.966315 -17.10222,14.258385 -20.83981,19.699535 -8.50444,12.38065 -13.37922,25.22696 -14.60824,38.49646 -0.34718,3.74841 -0.54227,154.78825 -0.55141,426.88889 -0.012,357.63351 -0.12847,421.60961 -0.77292,424.54911 -2.08671,9.5182 -7.96,17.7593 -16.54067,23.209 -3.93481,2.499 -11.14491,5.2346 -13.79702,5.2346 -0.76386,0 -1.6956,0.2966 -2.07051,0.6591 -0.54035,0.5226 -25.71875,0.6882 -121.4547,0.7991 l -120.773016,0.1398 z"
              id="path4486"/>
    </g>
</svg>