<?xml version="1.0" encoding="UTF-8" standalone="no"?>
<svg
   version="1.0"
   width="374px"
   height="374px"
   viewBox="0 0 374 374"
   preserveAspectRatio="xMidYMid meet"
   id="svg139"
   sodipodi:docname="ic_logo.svg"
   inkscape:version="1.2.2 (732a01da63, 2022-12-09)"
   xmlns:inkscape="http://www.inkscape.org/namespaces/inkscape"
   xmlns:sodipodi="http://sodipodi.sourceforge.net/DTD/sodipodi-0.dtd"
   xmlns="http://www.w3.org/2000/svg"
   xmlns:svg="http://www.w3.org/2000/svg">
  <defs
     id="defs143" />
  <sodipodi:namedview
     id="namedview141"
     pagecolor="#ffffff"
     bordercolor="#000000"
     borderopacity="0.25"
     inkscape:showpageshadow="2"
     inkscape:pageopacity="0.0"
     inkscape:pagecheckerboard="0"
     inkscape:deskcolor="#d1d1d1"
     showgrid="false"
     inkscape:zoom="0.73263072"
     inkscape:cx="242.27758"
     inkscape:cy="100.32339"
     inkscape:window-width="1920"
     inkscape:window-height="991"
     inkscape:window-x="-9"
     inkscape:window-y="-9"
     inkscape:window-maximized="1"
     inkscape:current-layer="svg139"
     showguides="true">
    <inkscape:grid
       type="xygrid"
       id="grid1069" />
  </sodipodi:namedview>
  <g
     fill="#0d1e4a"
     id="g81"
     style="display:inline"
     transform="matrix(1.097121,0,0,1.097121,-33.321946,-18.161625)">
    <path
       d="m 105.72968,306.00001 c -33.129035,0 -33.672906,0 -32.694841,-37.40775 C 73.09444,266.31269 73,241.4 73,174.4 73,82.3 71.752258,86.343668 73.052258,81.943668 73.079285,45.765116 80.660291,42.473926 110.90774,42.473926 L 182,43 c 0.16202,106.49216 0.37679,173.68057 -0.1,263 h -42.7 c -33.3,-0.1 -33.47032,10e-6 -33.47032,10e-6 z"
       id="path77"
       sodipodi:nodetypes="csscccccc" />
  </g>
  <g
     fill="#213264"
     id="g93"
     style="display:inline"
     transform="matrix(1.097121,0,0,1.097121,-33.321946,-18.161625)">
    <path
       d="m 209.92742,306 c -28.02742,0 -16.47383,2e-5 -28.02742,0 -0.65527,-67.53296 -0.54884,-185.07871 0.1,-263 -21.85,0 17.74869,0 26.27806,-0.526074 56.70905,59.278064 56.88063,58.915274 75.64129,76.345104 -0.83563,50.35615 -1.03918,67.40347 0,132.35812 0.96921,56.2706 3.79992,54.82286 -31.52967,54.82285 h -42.4623 z"
       id="path85"
       sodipodi:nodetypes="ccccccccc"
       style="display:inline" />
  </g>
  <g
     fill="#345cc1"
     id="g97"
     style="display:inline"
     transform="matrix(1.097121,0,0,1.097121,-33.321946,-18.161625)">
    <path
       d="m 208.56248,80.696985 -0.28442,-38.223059 c 38.55958,39.347987 38.68253,39.4693 75.64129,76.345104 -28.23442,1.41546 0,0 -48.03517,2.40811 -33.96383,0.746 -27.3217,1.24688 -27.3217,-40.530155 z"
       id="path95"
       style="display:inline"
       sodipodi:nodetypes="ccccc" />
  </g>
  <g
     fill="#8a9bce"
     id="g125"
     style="display:inline"
     transform="matrix(1.097121,0,0,1.097121,-33.321946,-18.161625)">
    <path
       d="m 96.2,121.7 c -3.1,-3.3 -2.9,-8 0.4,-10.6 2.5,-2 3.8,-2.1 25.3,-2 12.4,0.1 25.42959,0.89035 24.32959,1.09032 7.90239,2.98578 5.44287,11.04294 -1.45916,11.96774 -1.9,1.3 -12.51237,1.17836 -22.71237,1.17836 C 109.95806,123.33645 98.2,123.9 96.2,121.7 Z"
       id="path123"
       sodipodi:nodetypes="cccccsc"
       style="display:inline" />
  </g>
  <g
     fill="#8a9bce"
     id="g3742"
     style="display:inline"
     transform="matrix(1.097121,0,0,1.097121,-33.321946,-18.161625)">
    <path
       d="m 183.55643,166.46233 c -3.1,-3.3 -2.9,-8 0.4,-10.6 2.5,-2 3.8,-2.1 25.3,-2 12.4,0.1 25.42959,0.89035 24.32959,1.09032 7.90239,2.98578 5.44287,11.04294 -1.45916,11.96774 -1.9,1.3 -12.51237,1.17836 -22.71237,1.17836 -12.1,3e-5 -23.85806,0.56358 -25.85806,-1.63642 z"
       id="path3740"
       sodipodi:nodetypes="cccccsc"
       style="display:inline" />
    <path
       d="m 183.55643,166.46233 c -3.1,-3.3 -2.9,-8 0.4,-10.6 2.5,-2 3.8,-2.1 25.3,-2 12.4,0.1 25.42959,0.89035 24.32959,1.09032 7.90239,2.98578 5.44287,11.04294 -1.45916,11.96774 -1.9,1.3 -12.51237,1.17836 -22.71237,1.17836 -12.1,3e-5 -23.85806,0.56358 -25.85806,-1.63642 z"
       id="path3744"
       sodipodi:nodetypes="cccccsc"
       transform="translate(0,25.999996)" />
    <path
       d="m 183.55643,218.46232 c -3.1,-3.3 -2.9,-8 0.4,-10.6 2.5,-2 3.8,-2.1 25.3,-2 12.4,0.1 25.42959,0.89035 24.32959,1.09032 7.90239,2.98578 5.44287,11.04294 -1.45916,11.96774 -1.9,1.3 -12.51237,1.17836 -22.71237,1.17836 -12.1,3e-5 -23.85806,0.56358 -25.85806,-1.63642 z"
       id="path3749"
       sodipodi:nodetypes="cccccsc" />
    <path
       d="m 91.122023,196.29234 c -0.0096,-5.95477 -0.0142,-10.09752 0.04255,-15.20845 0.03923,-3.53255 -0.374815,-7.54485 -0.258352,-12.92045 -0.510228,-5.51207 0.545801,-8.18639 12.608599,-8.35568 14.94154,0.0358 27.04117,0.13291 35.83343,0.2206 11.79287,-0.34026 11.98698,-0.12318 11.64516,10.44335 0.007,3.74699 0.0318,7.58574 0.061,12.6683 0.0214,3.72481 0.0451,8.11764 0.0656,13.63198 -0.0295,9.06456 -0.2417,9.06456 -11.4116,9.12971 -10.97255,0.0713 -22.7645,0.14934 -37.04029,0.0499 -12.488666,-0.27539 -11.526659,2.37291 -11.546097,-9.65926 z"
       id="path3751"
       sodipodi:nodetypes="csccccscccc"
       style="stroke-width:1.90514" />
  </g>
  <g
     fill="#6666ff"
     id="g111"
     transform="translate(-198.69665,-22.320196)"
     style="display:inline">
    <g
       inkscape:groupmode="layer"
       id="layer1"
       inkscape:label="Layer 1"
       transform="translate(198.69665,22.320196)" />
  </g>
  <g
     fill="#b2b1ff"
     id="g133"
     inkscape:label="pincel"
     style="display:inline"
     transform="matrix(1.097121,0,0,1.097121,-33.321946,-18.161625)">
    <path
       d="m 332.35549,319.94064 c -6.4,-2.9 -14.4,-10.1 -26.6,-23.8 -6.2,-7 -14.5,-16.2 -18.4,-20.3 -13.8,-14.5 -30.5,-33.4 -30.5,-34.5 0,-0.2 1.3,-1.1 2.9,-2 4.2,-2.1 14,-11.4 19.1,-18 2.3,-3.00001 4.6,-5.50001 5.1,-5.50001 1.4,0 64.2,63.20001 68.7,69.20001 7.2,9.5 9.2,18 5.8,24.5 -1.8,3.6 -8.8,10 -12.2,11.3 -3.9,1.5 -9.5,1.1 -13.9,-0.9 z"
       id="path127" />
    <path
       d="m 249.84,233.32323 c -7.42825,-9.7098 -20.4172,-20.17222 -23.50042,-32.26897 -4.57396,-11.37329 3.59002,-18.84197 10.59837,-18.8961 6.3,0 7.41753,1.18247 14.41753,4.58247 11.95757,9.68166 6.82025,4.70483 30.2,26.4 l 5.2,4.9 -4.4,5.7 c -7.6,9.70001 -19.6,20.20001 -22.9,20.1 -4.28307,-3.39197 -9.13174,-9.94538 -9.61549,-10.5174 z"
       id="path99"
       style="fill:#605eed;fill-opacity:1"
       sodipodi:nodetypes="cccccccccc" />
    <path
       d="m 197.12581,184.30137 c -12.8,-3.5 -18.8,-8.9 -28.1,-25.3 -5.8,-10.3 -11.6,-17.2 -14.5,-17.2 -2.7,-0.1 2.2,-1.9 9.8,-3.6 11,-2.6 31.7,-2.6 40,0 8.6,2.6 13.4,5.3 18.3,10.2 7.9,8 10.3,18.2 6.3,26.9 -3.60235,7.72023 -8.0208,7.97552 -14.1,9.7 0,1.3 -12.1,0.8 -17.7,-0.7 z"
       id="path135"
       sodipodi:nodetypes="ccccccccc" />
  </g>
  <path
     style="fill:#b2b1ff;fill-opacity:1;stroke-width:1.09712"
     id="path4145"
     d="m 137.03156,32.009661 c -0.51416,0.424539 -1.00832,0.874543 -1.54248,1.273616 -1.84948,1.381724 -4.12332,2.820367 -6.03969,4.037775 -4.3105,2.738349 -8.7087,5.330977 -13.07351,7.981141 -4.62722,2.921593 -9.32271,5.74564 -13.88353,8.77177 -3.900747,2.588168 -7.716057,5.320721 -11.544437,8.014343 -4.592826,3.533111 -9.743579,6.336056 -14.201949,10.048378 -0.705217,0.587212 -1.363187,1.228954 -2.044783,1.843431 -0.594454,0.688619 -1.267839,1.316317 -1.783362,2.065855 -0.582288,0.846614 -1.038331,1.775468 -1.492563,2.697144 -1.818317,3.68952 -2.74015,7.385962 -3.438519,11.406792 -0.360086,5.15833 0.599458,10.385974 3.42134,14.795824 0.588411,0.91953 1.321533,1.73799 1.982299,2.60699 0.762973,0.74015 1.471151,1.54133 2.288921,2.22045 0.797631,0.6624 1.642118,1.27768 2.542481,1.7918 5.338338,3.04825 12.253905,8.36048 19.224165,9.73893 2.817477,0.55718 3.549757,0.38729 6.411887,0.33043 1.07077,-0.1326 2.15528,-0.18137 3.2123,-0.39778 2.17211,-0.44474 5.198,-1.54258 7.22734,-2.32099 3.93166,-1.50811 7.6665,-3.36346 11.42554,-5.24972 1.26775,-0.73148 2.53695,-1.46044 3.80323,-2.19447 3.08259,-1.78692 4.4648,-2.56003 7.44188,-4.47158 3.42947,-2.20201 6.72578,-4.60208 10.0699,-6.92943 5.3575,-3.512234 10.76035,-7.033524 16.65542,-9.596774 1.41225,-0.61407 2.86671,-1.12609 4.30007,-1.68913 4.04201,-1.40303 8.18777,-2.51702 12.42759,-3.124658 1.84832,-0.264897 4.16737,-0.486628 6.06234,-0.317489 0.75968,0.0678 1.49839,0.285778 2.24759,0.428667 7.18893,3.72819 -6.9666,-4.144027 -10.57601,-5.98118 -0.49191,-0.250372 0.82948,0.739922 1.15855,1.183047 1.06429,1.433159 1.32055,3.055004 1.56459,4.763731 0.0543,4.618722 -1.68965,6.797092 -4.74868,10.015552 -5.27231,4.769694 -11.77107,7.808034 -18.42728,10.132424 -1.80587,0.63063 -3.64708,1.15507 -5.47062,1.73261 -6.83038,2.24595 -14.07401,3.33602 -20.86345,5.6805 -0.56775,0.23039 -1.16617,0.39629 -1.70323,0.69121 -0.55838,0.3066 -1.05944,0.70964 -1.56164,1.10155 -1.88342,1.46983 -3.0464,2.85845 -4.25182,4.89347 -0.40185,0.97014 -1.12751,2.03835 -1.05726,3.15027 0.11081,1.75385 1.22599,3.08593 2.20265,4.44316 1.00771,1.20367 1.26,1.57172 2.39916,2.6631 4.89929,4.69381 14.44672,9.03862 18.62264,11.42225 1.5303,0.55842 3.10687,0.93362 4.72531,1.10896 0.44426,0.34898 0.94191,0.58532 1.45929,0.7992 0,0 -12.87899,-10.16826 -12.87899,-10.16826 v 0 c -0.54185,-0.23436 -1.06527,-0.45944 -1.67181,-0.44936 -1.47367,-0.29671 -2.93454,-0.71943 -4.27422,-1.41278 4.26324,2.47833 8.5331,4.94534 12.78974,7.43499 0.40795,0.23862 -0.83866,-0.43732 -1.24325,-0.68158 -1.9625,-1.18484 -3.71318,-2.66929 -5.22342,-4.39329 -0.46411,-0.5731 -2.1831,-2.57202 -2.4498,-3.26466 -0.32423,-0.84204 0.36997,-1.83903 0.59255,-2.59126 1.53342,-2.87453 3.62934,-4.6901 6.69719,-5.85003 6.50475,-2.40674 13.22842,-4.16532 19.81381,-6.33041 3.53906,-1.14387 7.56467,-2.37578 11.01658,-3.77013 2.80044,-1.1312 6.26877,-2.85501 8.91186,-4.36261 1.08886,-0.62108 2.17057,-1.26183 3.19093,-1.98998 0.74636,-0.53261 1.39681,-1.18818 2.09521,-1.78228 1.64581,-1.66807 3.39243,-3.3332 4.41838,-5.487584 0.82712,-1.73686 1.07435,-3.72794 1.19266,-5.61893 -0.11015,-2.02915 -0.28933,-3.67543 -1.17665,-5.54667 -3.0907,-6.51775 -11.18839,-9.248514 -17.96211,-10.996569 -0.75443,-0.04431 -1.50762,-0.143783 -2.26327,-0.132948 -1.97012,0.02825 -3.99084,0.353947 -5.9128,0.739809 -4.19709,0.842627 -8.31844,2.045345 -12.34411,3.495069 -3.39482,1.306039 -5.27797,1.936154 -8.50996,3.538852 -4.51338,2.238117 -8.6998,5.115337 -12.87298,7.913167 -6.76941,4.89099 -13.64915,9.649184 -21.10587,13.453154 -6.83971,3.41072 -13.959317,6.82045 -21.725587,7.1809 -2.83439,-0.11396 -3.40993,0.0156 -6.169087,-0.70241 -0.987573,-0.257 -3.73336,-1.56482 -2.903234,-0.97133 3.328094,2.37943 6.996761,4.24242 10.479981,6.38834 0.87477,0.53893 -1.81596,-0.97307 -2.65427,-1.56712 -0.85026,-0.60253 -1.59612,-1.34028 -2.394161,-2.01042 -0.691011,-0.78519 -1.455024,-1.51173 -2.073032,-2.35559 -2.926856,-3.99649 -3.980937,-8.92996 -3.758156,-13.799664 0.123646,-0.8905 0.205217,-1.78788 0.370959,-2.67152 0.692349,-3.69124 1.946523,-7.57118 4.161303,-10.649775 0.495548,-0.688828 1.116036,-1.278548 1.674057,-1.917822 0.64148,-0.591758 1.25914,-1.210434 1.92446,-1.775274 4.36399,-3.704976 9.23766,-6.772164 13.773317,-10.251417 8.10919,-5.979897 16.29414,-11.87792 25.06433,-16.870179 7.28929,-4.321956 14.66514,-8.489288 22.0441,-12.655198 0,0 -13.81632,-8.6784 -13.81632,-8.6784 z" />
</svg>
